<?xml version="1.0" encoding="utf-8"?>
<!-- Generator: Adobe Illustrator 27.5.0, SVG Export Plug-In . SVG Version: 6.00 Build 0)  -->
<svg version="1.1" id="Camada_1" xmlns="http://www.w3.org/2000/svg" xmlns:xlink="http://www.w3.org/1999/xlink" x="0px" y="0px"
	 viewBox="0 0 425.2 113.39" style="enable-background:new 0 0 425.2 113.39;" xml:space="preserve">
<style type="text/css">
	.st0{fill:#340099;}
	.st1{fill-rule:evenodd;clip-rule:evenodd;fill:#330098;}
	.st2{fill-rule:evenodd;clip-rule:evenodd;fill:#FD5EB3;}
	.st3{fill-rule:evenodd;clip-rule:evenodd;fill:#BA61FE;}
	.st4{fill-rule:evenodd;clip-rule:evenodd;fill:#FD6C6B;}
</style>
<path class="st0" d="M378.9,63.05c-2.63,0-5.03-0.6-7.18-1.79c-2.16-1.19-3.64-2.75-4.46-4.68c-0.14-0.33-0.2-0.6-0.2-0.81
	c0-0.41,0.15-0.77,0.45-1.08c0.3-0.31,0.71-0.52,1.22-0.63c0.08-0.03,0.22-0.04,0.41-0.04c0.43,0,0.85,0.13,1.24,0.39
	c0.39,0.26,0.69,0.6,0.88,1.04c0.49,1.06,1.45,1.95,2.89,2.69c1.44,0.73,3.03,1.1,4.76,1.1c2.04,0,3.76-0.47,5.17-1.4
	c1.41-0.94,2.12-2.22,2.12-3.85c0-1.55-0.6-2.87-1.79-3.97c-1.19-1.1-3.01-1.77-5.45-2.01c-3.36-0.33-6.01-1.31-7.94-2.95
	c-1.93-1.64-2.89-3.7-2.89-6.17c0-1.74,0.5-3.24,1.49-4.5c0.99-1.26,2.35-2.23,4.07-2.89c1.72-0.67,3.66-1,5.8-1
	c2.33,0,4.3,0.47,5.9,1.42c1.6,0.95,2.96,2.31,4.07,4.07c0.33,0.52,0.49,1,0.49,1.47c0,0.6-0.27,1.09-0.81,1.47
	c-0.3,0.19-0.65,0.28-1.06,0.28c-0.41,0-0.79-0.1-1.14-0.31c-0.35-0.2-0.62-0.48-0.81-0.83c-0.73-1.22-1.65-2.15-2.75-2.79
	s-2.49-0.96-4.17-0.96c-2.06,0-3.73,0.4-5.01,1.2s-1.91,1.96-1.91,3.48c0,1.41,0.57,2.59,1.71,3.54c1.14,0.95,3.17,1.57,6.11,1.87
	c3.26,0.33,5.78,1.31,7.57,2.95c1.79,1.64,2.69,3.81,2.69,6.49c0,1.95-0.53,3.63-1.59,5.03c-1.06,1.4-2.46,2.44-4.21,3.13
	C382.79,62.71,380.91,63.05,378.9,63.05 M344.63,52.14h11.76l-5.82-14.49L344.63,52.14z M363.96,59.67c0.14,0.35,0.2,0.65,0.2,0.9
	c0,0.57-0.2,1.06-0.61,1.47c-0.41,0.41-0.91,0.61-1.51,0.61c-0.41,0-0.79-0.12-1.16-0.35c-0.37-0.23-0.63-0.55-0.79-0.96l-2.28-5.7
	H343.2l-2.32,5.7c-0.19,0.41-0.46,0.73-0.81,0.96c-0.35,0.23-0.73,0.35-1.14,0.35c-0.6,0-1.09-0.21-1.49-0.63
	c-0.39-0.42-0.59-0.92-0.59-1.49c0-0.27,0.07-0.58,0.2-0.94l11.44-27.31c0.41-0.95,1.07-1.42,1.99-1.42c0.98,0,1.64,0.47,1.99,1.42
	L363.96,59.67z M323.91,46.49c1.85,0,3.36-0.52,4.56-1.57c1.19-1.04,1.79-2.39,1.79-4.05c0-1.79-0.6-3.26-1.79-4.4
	c-1.19-1.14-2.71-1.71-4.56-1.71h-5.21v11.72H323.91z M335.1,59.39c0.27,0.43,0.41,0.88,0.41,1.34c0,0.54-0.18,1-0.55,1.36
	c-0.37,0.37-0.86,0.55-1.49,0.55c-0.79,0-1.4-0.34-1.83-1.02l-7-11.23h-0.73h-5.21v10.14c0,0.6-0.2,1.1-0.59,1.51
	c-0.39,0.41-0.9,0.61-1.53,0.61c-0.6,0-1.1-0.2-1.51-0.61c-0.41-0.41-0.61-0.91-0.61-1.51V32.97c0-0.62,0.2-1.13,0.61-1.53
	c0.41-0.39,0.91-0.59,1.51-0.59h7.33c2.01,0,3.81,0.42,5.39,1.26c1.59,0.84,2.82,2.02,3.7,3.54c0.88,1.52,1.32,3.26,1.32,5.21
	c0,1.93-0.49,3.64-1.47,5.13c-0.98,1.49-2.31,2.62-3.99,3.38L335.1,59.39z M290.29,52.14h11.76l-5.82-14.49L290.29,52.14z
	 M309.62,59.67c0.14,0.35,0.2,0.65,0.2,0.9c0,0.57-0.2,1.06-0.61,1.47c-0.41,0.41-0.91,0.61-1.51,0.61c-0.41,0-0.79-0.12-1.16-0.35
	c-0.37-0.23-0.63-0.55-0.79-0.96l-2.28-5.7h-14.61l-2.32,5.7c-0.19,0.41-0.46,0.73-0.81,0.96c-0.35,0.23-0.73,0.35-1.14,0.35
	c-0.6,0-1.09-0.21-1.49-0.63c-0.39-0.42-0.59-0.92-0.59-1.49c0-0.27,0.07-0.58,0.2-0.94l11.44-27.31c0.41-0.95,1.07-1.42,1.99-1.42
	c0.98,0,1.64,0.47,1.99,1.42L309.62,59.67z M269.57,46.49c1.85,0,3.36-0.52,4.56-1.57c1.19-1.04,1.79-2.39,1.79-4.05
	c0-1.79-0.6-3.26-1.79-4.4c-1.19-1.14-2.71-1.71-4.56-1.71h-5.21v11.72H269.57z M280.76,59.39c0.27,0.43,0.41,0.88,0.41,1.34
	c0,0.54-0.18,1-0.55,1.36c-0.37,0.37-0.86,0.55-1.49,0.55c-0.79,0-1.4-0.34-1.83-1.02l-7-11.23h-0.73h-5.21v10.14
	c0,0.6-0.2,1.1-0.59,1.51c-0.39,0.41-0.9,0.61-1.53,0.61c-0.6,0-1.1-0.2-1.51-0.61c-0.41-0.41-0.61-0.91-0.61-1.51V32.97
	c0-0.62,0.2-1.13,0.61-1.53c0.41-0.39,0.91-0.59,1.51-0.59h7.33c2.01,0,3.81,0.42,5.39,1.26c1.59,0.84,2.82,2.02,3.7,3.54
	c0.88,1.52,1.32,3.26,1.32,5.21c0,1.93-0.49,3.64-1.47,5.13c-0.98,1.49-2.31,2.62-3.99,3.38L280.76,59.39z M249.87,62.65
	c-0.6,0-1.1-0.2-1.51-0.61c-0.41-0.41-0.61-0.91-0.61-1.51V32.97c0-0.62,0.2-1.13,0.61-1.53c0.41-0.39,0.91-0.59,1.51-0.59
	c0.62,0,1.13,0.2,1.53,0.59c0.39,0.39,0.59,0.9,0.59,1.53v27.56c0,0.6-0.2,1.1-0.59,1.51C251,62.44,250.49,62.65,249.87,62.65z
	 M240.95,30.86c0.6,0,1.07,0.16,1.4,0.49s0.51,0.75,0.51,1.26c0,0.33-0.08,0.68-0.24,1.06L230.58,61.3
	c-0.35,0.9-0.99,1.34-1.91,1.34c-0.87,0-1.51-0.45-1.91-1.34l-11.93-27.27c-0.22-0.57-0.33-1.04-0.33-1.42
	c0-0.54,0.17-0.97,0.51-1.28c0.34-0.31,0.81-0.47,1.4-0.47c0.95,0,1.6,0.42,1.95,1.26l10.26,24.58l10.42-24.58
	c0.19-0.49,0.43-0.82,0.73-1C240.07,30.94,240.47,30.86,240.95,30.86z M196.83,52.14h11.76l-5.82-14.49L196.83,52.14z M216.17,59.67
	c0.14,0.35,0.2,0.65,0.2,0.9c0,0.57-0.2,1.06-0.61,1.47c-0.41,0.41-0.91,0.61-1.51,0.61c-0.41,0-0.79-0.12-1.16-0.35
	c-0.37-0.23-0.63-0.55-0.79-0.96l-2.28-5.7h-14.61l-2.32,5.7c-0.19,0.41-0.46,0.73-0.81,0.96c-0.35,0.23-0.73,0.35-1.14,0.35
	c-0.6,0-1.09-0.21-1.49-0.63c-0.39-0.42-0.59-0.92-0.59-1.49c0-0.27,0.07-0.58,0.2-0.94l11.44-27.31c0.41-0.95,1.07-1.42,1.99-1.42
	c0.98,0,1.64,0.47,1.99,1.42L216.17,59.67z M182.14,30.86c0.6,0,1.1,0.2,1.51,0.61c0.41,0.41,0.61,0.91,0.61,1.51v27.56
	c0,0.6-0.21,1.1-0.63,1.51c-0.42,0.41-0.92,0.61-1.49,0.61c-0.6,0-1.1-0.2-1.51-0.61c-0.41-0.41-0.61-0.91-0.61-1.51V40.3
	l-9.85,20.07c-0.46,0.71-1.07,1.06-1.83,1.06c-0.9,0-1.55-0.42-1.95-1.26l-9.73-19.5v19.86c0,0.6-0.2,1.1-0.61,1.51
	c-0.41,0.41-0.91,0.61-1.51,0.61c-0.6,0-1.1-0.2-1.51-0.61c-0.41-0.41-0.61-0.91-0.61-1.51V32.97c0-0.6,0.2-1.1,0.61-1.51
	c0.41-0.41,0.91-0.61,1.51-0.61c0.81,0,1.44,0.38,1.87,1.14l12.09,24.22L180.27,32C180.7,31.24,181.32,30.86,182.14,30.86z
	 M128.25,52.14h11.76l-5.82-14.49L128.25,52.14z M147.58,59.67c0.14,0.35,0.2,0.65,0.2,0.9c0,0.57-0.2,1.06-0.61,1.47
	c-0.41,0.41-0.91,0.61-1.51,0.61c-0.41,0-0.79-0.12-1.16-0.35c-0.37-0.23-0.63-0.55-0.79-0.96l-2.28-5.7h-14.61l-2.32,5.7
	c-0.19,0.41-0.46,0.73-0.81,0.96c-0.35,0.23-0.73,0.35-1.14,0.35c-0.6,0-1.09-0.21-1.49-0.63c-0.39-0.42-0.59-0.92-0.59-1.49
	c0-0.27,0.07-0.58,0.2-0.94l11.44-27.31c0.41-0.95,1.07-1.42,1.99-1.42c0.98,0,1.64,0.47,1.99,1.42L147.58,59.67z"/>
<path class="st0" d="M233.22,66.95c0.25,0,0.45,0.03,0.6,0.1c0.15,0.07,0.22,0.16,0.22,0.28c0,0.04,0,0.06-0.01,0.08
	c-0.02,0.08-0.06,0.14-0.11,0.17c-0.05,0.03-0.12,0.05-0.21,0.05c-0.05,0-0.15-0.01-0.28-0.02c-0.05-0.01-0.12-0.01-0.22-0.01
	c-0.45,0-0.81,0.12-1.1,0.36c-0.28,0.24-0.43,0.55-0.43,0.93v2.68c0,0.11-0.03,0.19-0.09,0.25c-0.06,0.06-0.14,0.09-0.25,0.09
	c-0.11,0-0.19-0.03-0.25-0.09c-0.06-0.06-0.09-0.14-0.09-0.25v-4.23c0-0.11,0.03-0.19,0.09-0.25s0.14-0.09,0.25-0.09
	c0.11,0,0.19,0.03,0.25,0.09s0.09,0.14,0.09,0.25v0.39c0.17-0.25,0.39-0.45,0.66-0.58C232.62,67.02,232.91,66.95,233.22,66.95
	 M227.11,66.26c-0.1,0-0.19-0.03-0.25-0.1c-0.07-0.07-0.1-0.15-0.1-0.25c0-0.1,0.03-0.17,0.08-0.23l1.01-1.01
	c0.07-0.07,0.15-0.1,0.24-0.1c0.1,0,0.19,0.03,0.25,0.1c0.07,0.07,0.1,0.15,0.1,0.26c0,0.1-0.03,0.17-0.1,0.23l-1,1.01
	C227.28,66.23,227.2,66.26,227.11,66.26z M227.17,71.33c0.35,0,0.66-0.08,0.93-0.24c0.27-0.16,0.49-0.38,0.65-0.67
	c0.16-0.28,0.23-0.6,0.23-0.96c0-0.36-0.08-0.68-0.23-0.96c-0.16-0.28-0.37-0.51-0.65-0.67c-0.28-0.16-0.59-0.24-0.93-0.24
	c-0.34,0-0.65,0.08-0.93,0.24c-0.28,0.16-0.5,0.38-0.65,0.67c-0.16,0.28-0.24,0.61-0.24,0.96c0,0.35,0.08,0.67,0.24,0.96
	c0.16,0.28,0.38,0.51,0.65,0.67C226.52,71.24,226.83,71.33,227.17,71.33z M227.17,71.95c-0.47,0-0.9-0.11-1.28-0.32
	c-0.38-0.22-0.68-0.51-0.89-0.89c-0.22-0.38-0.32-0.81-0.32-1.28c0-0.47,0.11-0.9,0.32-1.28c0.22-0.38,0.51-0.68,0.89-0.9
	c0.38-0.22,0.81-0.32,1.28-0.32c0.47,0,0.9,0.11,1.27,0.32c0.38,0.22,0.67,0.51,0.89,0.9c0.22,0.38,0.33,0.81,0.33,1.28
	c0,0.47-0.11,0.9-0.32,1.28c-0.22,0.38-0.51,0.68-0.89,0.89C228.07,71.85,227.64,71.95,227.17,71.95z M223.49,71.22
	c0.1,0,0.17,0.03,0.23,0.1c0.06,0.07,0.09,0.15,0.09,0.25c0,0.1-0.04,0.18-0.11,0.24c-0.07,0.07-0.16,0.1-0.27,0.1h-0.19
	c-0.32,0-0.6-0.08-0.85-0.23c-0.25-0.15-0.45-0.36-0.59-0.62c-0.14-0.26-0.21-0.55-0.21-0.88v-2.4h-0.58c-0.1,0-0.17-0.03-0.23-0.09
	c-0.06-0.06-0.09-0.13-0.09-0.21c0-0.09,0.03-0.16,0.09-0.22c0.06-0.06,0.13-0.09,0.23-0.09h0.58v-1.39c0-0.1,0.03-0.19,0.09-0.25
	c0.06-0.07,0.15-0.1,0.25-0.1c0.1,0,0.19,0.03,0.25,0.1c0.07,0.07,0.1,0.15,0.1,0.25v1.39h1.01c0.1,0,0.17,0.03,0.23,0.09
	c0.06,0.06,0.08,0.13,0.08,0.22c0,0.08-0.03,0.15-0.08,0.21c-0.06,0.06-0.13,0.09-0.23,0.09h-1.01v2.4c0,0.31,0.09,0.55,0.27,0.75
	c0.18,0.19,0.41,0.29,0.69,0.29H223.49z M219.22,66.07c-0.14,0-0.25-0.05-0.35-0.14c-0.09-0.1-0.14-0.21-0.14-0.35
	c0-0.14,0.05-0.26,0.14-0.35c0.1-0.09,0.21-0.13,0.35-0.13c0.13,0,0.25,0.05,0.34,0.13c0.1,0.09,0.14,0.21,0.14,0.35
	c0,0.14-0.05,0.25-0.14,0.35C219.47,66.02,219.36,66.07,219.22,66.07z M219.23,71.91c-0.1,0-0.19-0.03-0.25-0.1
	c-0.07-0.07-0.1-0.15-0.1-0.25v-4.21c0-0.1,0.03-0.19,0.1-0.25c0.07-0.07,0.15-0.1,0.25-0.1c0.1,0,0.18,0.03,0.25,0.1
	c0.06,0.07,0.09,0.15,0.09,0.25v4.21c0,0.1-0.03,0.19-0.09,0.25C219.41,71.88,219.33,71.91,219.23,71.91z M217.44,64.9
	c0.1,0,0.17,0.03,0.23,0.09c0.06,0.06,0.09,0.13,0.09,0.22c0,0.06-0.01,0.13-0.04,0.2l-2.67,6.27c-0.07,0.15-0.17,0.22-0.31,0.22
	c-0.08,0-0.14-0.02-0.19-0.05c-0.05-0.03-0.09-0.09-0.13-0.17l-2.66-6.23c-0.04-0.09-0.05-0.17-0.05-0.23c0-0.1,0.03-0.17,0.09-0.23
	c0.06-0.06,0.15-0.09,0.25-0.09c0.16,0,0.26,0.07,0.32,0.22l2.38,5.69l2.37-5.67c0.04-0.09,0.08-0.15,0.13-0.19
	C217.28,64.92,217.35,64.9,217.44,64.9z M208.47,71.33c0.34,0,0.65-0.08,0.92-0.24c0.27-0.16,0.49-0.38,0.65-0.67
	c0.16-0.28,0.24-0.6,0.24-0.96c0-0.35-0.08-0.67-0.24-0.96c-0.16-0.28-0.38-0.51-0.65-0.67c-0.28-0.16-0.58-0.25-0.92-0.25
	c-0.34,0-0.65,0.08-0.93,0.25c-0.28,0.16-0.5,0.39-0.65,0.67c-0.16,0.28-0.24,0.6-0.24,0.96c0,0.35,0.08,0.67,0.24,0.96
	c0.16,0.28,0.38,0.51,0.65,0.67C207.82,71.24,208.13,71.33,208.47,71.33z M208.47,66.96c0.47,0,0.89,0.11,1.27,0.33
	c0.38,0.22,0.68,0.52,0.9,0.9c0.22,0.38,0.33,0.81,0.33,1.27v2.11c0,0.1-0.03,0.18-0.1,0.24c-0.07,0.07-0.15,0.1-0.25,0.1
	c-0.1,0-0.19-0.03-0.25-0.09c-0.07-0.06-0.1-0.15-0.1-0.25v-0.54c-0.21,0.29-0.48,0.51-0.8,0.68c-0.32,0.16-0.68,0.25-1.07,0.25
	c-0.45,0-0.87-0.11-1.23-0.33c-0.37-0.22-0.66-0.52-0.87-0.9c-0.21-0.38-0.32-0.8-0.32-1.27c0-0.47,0.11-0.89,0.33-1.27
	c0.22-0.38,0.52-0.68,0.9-0.9C207.58,67.07,208.01,66.96,208.47,66.96z M204.13,66.07c-0.14,0-0.25-0.05-0.35-0.14
	c-0.09-0.1-0.14-0.21-0.14-0.35c0-0.14,0.05-0.26,0.14-0.35c0.1-0.09,0.21-0.13,0.35-0.13c0.13,0,0.25,0.05,0.34,0.13
	c0.1,0.09,0.14,0.21,0.14,0.35c0,0.14-0.05,0.25-0.14,0.35C204.39,66.02,204.27,66.07,204.13,66.07z M204.14,71.91
	c-0.1,0-0.19-0.03-0.25-0.1c-0.07-0.07-0.1-0.15-0.1-0.25v-4.21c0-0.1,0.03-0.19,0.1-0.25c0.07-0.07,0.15-0.1,0.25-0.1
	c0.1,0,0.18,0.03,0.25,0.1c0.06,0.07,0.09,0.15,0.09,0.25v4.21c0,0.1-0.03,0.19-0.09,0.25C204.32,71.88,204.24,71.91,204.14,71.91z
	 M201.75,66.95c0.25,0,0.45,0.03,0.6,0.1c0.15,0.07,0.22,0.16,0.22,0.28c0,0.04,0,0.06-0.01,0.08c-0.02,0.08-0.06,0.14-0.11,0.17
	c-0.05,0.03-0.12,0.05-0.21,0.05c-0.05,0-0.15-0.01-0.28-0.02c-0.05-0.01-0.12-0.01-0.22-0.01c-0.45,0-0.81,0.12-1.1,0.36
	c-0.28,0.24-0.43,0.55-0.43,0.93v2.68c0,0.11-0.03,0.19-0.09,0.25c-0.06,0.06-0.14,0.09-0.25,0.09c-0.11,0-0.19-0.03-0.25-0.09
	c-0.06-0.06-0.09-0.14-0.09-0.25v-4.23c0-0.11,0.03-0.19,0.09-0.25s0.14-0.09,0.25-0.09c0.11,0,0.19,0.03,0.25,0.09
	c0.06,0.06,0.09,0.14,0.09,0.25v0.39c0.17-0.25,0.39-0.45,0.66-0.58C201.15,67.02,201.44,66.95,201.75,66.95z M195.7,71.33
	c0.34,0,0.65-0.08,0.92-0.24c0.28-0.16,0.49-0.38,0.65-0.67c0.16-0.28,0.24-0.6,0.24-0.96c0-0.35-0.08-0.67-0.24-0.96
	c-0.16-0.28-0.38-0.51-0.65-0.67c-0.28-0.16-0.58-0.25-0.92-0.25c-0.34,0-0.65,0.08-0.93,0.25c-0.28,0.16-0.5,0.39-0.65,0.67
	c-0.16,0.28-0.24,0.6-0.24,0.96c0,0.35,0.08,0.67,0.24,0.96c0.16,0.28,0.38,0.51,0.65,0.67C195.05,71.24,195.36,71.33,195.7,71.33z
	 M195.7,66.96c0.47,0,0.89,0.11,1.27,0.33c0.38,0.22,0.68,0.52,0.9,0.9c0.22,0.38,0.33,0.81,0.33,1.27v2.11
	c0,0.1-0.03,0.18-0.1,0.24c-0.07,0.07-0.15,0.1-0.25,0.1c-0.1,0-0.19-0.03-0.25-0.09c-0.07-0.06-0.1-0.15-0.1-0.25v-0.54
	c-0.21,0.29-0.48,0.51-0.8,0.68c-0.32,0.16-0.68,0.25-1.07,0.25c-0.45,0-0.87-0.11-1.23-0.33c-0.37-0.22-0.66-0.52-0.87-0.9
	c-0.21-0.38-0.32-0.8-0.32-1.27c0-0.47,0.11-0.89,0.33-1.27c0.22-0.38,0.52-0.68,0.9-0.9C194.81,67.07,195.23,66.96,195.7,66.96z
	 M191.42,64.9c0.1,0,0.18,0.03,0.24,0.1c0.07,0.07,0.1,0.15,0.1,0.25v6.31c0,0.1-0.03,0.18-0.1,0.25c-0.07,0.07-0.15,0.1-0.24,0.1
	c-0.1,0-0.19-0.03-0.26-0.1c-0.07-0.07-0.1-0.15-0.1-0.25v-5.08l-2.49,5.1c-0.07,0.11-0.17,0.17-0.3,0.17
	c-0.15,0-0.26-0.07-0.32-0.22l-2.48-4.97v5c0,0.1-0.03,0.18-0.1,0.25c-0.07,0.07-0.15,0.1-0.25,0.1c-0.1,0-0.18-0.03-0.25-0.1
	c-0.07-0.07-0.1-0.15-0.1-0.25v-6.31c0-0.1,0.03-0.19,0.1-0.25c0.07-0.07,0.15-0.1,0.25-0.1c0.14,0,0.24,0.06,0.31,0.18l2.87,5.71
	l2.82-5.71C191.18,64.96,191.28,64.9,191.42,64.9z M178.2,71.33c0.35,0,0.66-0.08,0.93-0.24c0.27-0.16,0.49-0.38,0.65-0.67
	c0.16-0.28,0.23-0.6,0.23-0.96c0-0.36-0.08-0.68-0.23-0.96c-0.16-0.28-0.37-0.51-0.65-0.67c-0.28-0.16-0.59-0.24-0.93-0.24
	c-0.34,0-0.65,0.08-0.93,0.24c-0.28,0.16-0.5,0.38-0.65,0.67c-0.16,0.28-0.24,0.61-0.24,0.96c0,0.35,0.08,0.67,0.24,0.96
	c0.16,0.28,0.38,0.51,0.65,0.67C177.55,71.24,177.86,71.33,178.2,71.33z M178.2,71.95c-0.47,0-0.9-0.11-1.28-0.32
	c-0.38-0.22-0.68-0.51-0.89-0.89c-0.22-0.38-0.32-0.81-0.32-1.28c0-0.47,0.11-0.9,0.32-1.28c0.22-0.38,0.51-0.68,0.89-0.9
	c0.38-0.22,0.81-0.32,1.28-0.32c0.47,0,0.9,0.11,1.27,0.32c0.38,0.22,0.67,0.51,0.89,0.9c0.22,0.38,0.33,0.81,0.33,1.28
	c0,0.47-0.11,0.9-0.32,1.28c-0.22,0.38-0.51,0.68-0.89,0.89C179.1,71.85,178.67,71.95,178.2,71.95z M173.07,66.28
	c-0.17,0-0.32-0.03-0.45-0.08c-0.13-0.05-0.27-0.13-0.42-0.22c-0.13-0.08-0.23-0.13-0.31-0.16c-0.08-0.03-0.16-0.04-0.23-0.04
	c-0.22,0-0.42,0.1-0.59,0.31c-0.04,0.05-0.08,0.1-0.13,0.13c-0.05,0.03-0.11,0.04-0.16,0.04c-0.05,0-0.1-0.01-0.15-0.04
	c-0.04-0.02-0.08-0.06-0.1-0.1s-0.04-0.09-0.04-0.14c0-0.07,0.02-0.14,0.06-0.2c0.15-0.19,0.32-0.34,0.52-0.44
	c0.2-0.1,0.4-0.16,0.62-0.16c0.16,0,0.3,0.02,0.42,0.07c0.12,0.05,0.26,0.12,0.41,0.22c0.14,0.08,0.24,0.14,0.31,0.17
	c0.07,0.03,0.15,0.04,0.24,0.04c0.19,0,0.33-0.06,0.44-0.18c0.09-0.1,0.18-0.15,0.28-0.15c0.05,0,0.1,0.01,0.14,0.04
	c0.11,0.05,0.16,0.14,0.16,0.25c0,0.07-0.02,0.13-0.07,0.2C173.77,66.14,173.45,66.28,173.07,66.28z M172.12,71.33
	c0.34,0,0.65-0.08,0.92-0.24c0.27-0.16,0.49-0.38,0.65-0.67c0.16-0.28,0.24-0.6,0.24-0.96c0-0.35-0.08-0.67-0.24-0.96
	c-0.16-0.28-0.38-0.51-0.65-0.67c-0.28-0.16-0.58-0.25-0.92-0.25c-0.34,0-0.65,0.08-0.93,0.25c-0.28,0.16-0.5,0.39-0.65,0.67
	c-0.16,0.28-0.24,0.6-0.24,0.96c0,0.35,0.08,0.67,0.24,0.96c0.16,0.28,0.38,0.51,0.65,0.67C171.47,71.24,171.78,71.33,172.12,71.33z
	 M172.12,66.96c0.47,0,0.89,0.11,1.27,0.33c0.38,0.22,0.68,0.52,0.9,0.9c0.22,0.38,0.33,0.81,0.33,1.27v2.11
	c0,0.1-0.03,0.18-0.1,0.24c-0.07,0.07-0.15,0.1-0.25,0.1c-0.1,0-0.19-0.03-0.25-0.09c-0.07-0.06-0.1-0.15-0.1-0.25v-0.54
	c-0.21,0.29-0.48,0.51-0.8,0.68c-0.32,0.16-0.68,0.25-1.07,0.25c-0.45,0-0.87-0.11-1.23-0.33c-0.37-0.22-0.66-0.52-0.87-0.9
	c-0.21-0.38-0.32-0.8-0.32-1.27c0-0.47,0.11-0.89,0.33-1.27c0.22-0.38,0.52-0.68,0.9-0.9C171.23,67.07,171.66,66.96,172.12,66.96z
	 M168.33,70.91c0.08,0.07,0.13,0.15,0.13,0.24c0,0.08-0.03,0.14-0.09,0.2c-0.36,0.33-0.8,0.53-1.34,0.58l-0.13,0.3
	c0.3,0.08,0.51,0.19,0.64,0.32c0.13,0.14,0.19,0.31,0.19,0.51c0,0.17-0.05,0.32-0.16,0.47c-0.11,0.14-0.25,0.26-0.44,0.34
	c-0.19,0.08-0.39,0.13-0.62,0.13c-0.31,0-0.57-0.07-0.78-0.2c-0.21-0.13-0.31-0.29-0.31-0.47c0-0.09,0.03-0.17,0.1-0.23
	c0.07-0.07,0.14-0.1,0.23-0.1c0.11,0,0.22,0.06,0.31,0.19c0.1,0.14,0.25,0.22,0.46,0.22c0.14,0,0.25-0.03,0.34-0.09
	c0.09-0.06,0.13-0.14,0.13-0.25c0-0.11-0.04-0.2-0.11-0.27c-0.07-0.07-0.19-0.12-0.36-0.16c-0.11-0.02-0.2-0.06-0.26-0.1
	c-0.06-0.04-0.09-0.11-0.09-0.18c0-0.05,0.01-0.12,0.04-0.21l0.09-0.22c-0.39-0.06-0.75-0.2-1.06-0.44
	c-0.31-0.23-0.55-0.52-0.72-0.87c-0.17-0.35-0.26-0.73-0.26-1.15c0-0.48,0.1-0.91,0.31-1.29c0.2-0.38,0.48-0.68,0.84-0.89
	c0.36-0.22,0.76-0.32,1.21-0.32c0.75,0,1.35,0.29,1.82,0.86c0.05,0.05,0.07,0.12,0.07,0.19c0,0.1-0.05,0.18-0.15,0.25
	c-0.05,0.04-0.11,0.05-0.17,0.05c-0.09,0-0.18-0.05-0.26-0.13c-0.18-0.2-0.38-0.35-0.59-0.44c-0.22-0.1-0.45-0.15-0.72-0.15
	c-0.33,0-0.62,0.08-0.88,0.24c-0.26,0.16-0.46,0.38-0.6,0.67c-0.14,0.29-0.21,0.61-0.21,0.97c0,0.35,0.07,0.67,0.22,0.96
	c0.15,0.28,0.36,0.51,0.63,0.67c0.27,0.16,0.58,0.24,0.92,0.24c0.48,0,0.86-0.13,1.16-0.39c0.08-0.07,0.16-0.1,0.24-0.1
	C168.2,70.84,168.27,70.86,168.33,70.91z M160.7,71.33c0.34,0,0.65-0.08,0.92-0.24c0.27-0.16,0.49-0.38,0.65-0.67
	c0.16-0.28,0.24-0.6,0.24-0.96c0-0.35-0.08-0.67-0.24-0.96c-0.16-0.28-0.38-0.51-0.65-0.67c-0.28-0.16-0.58-0.25-0.92-0.25
	c-0.34,0-0.65,0.08-0.93,0.25c-0.28,0.16-0.5,0.39-0.65,0.67c-0.16,0.28-0.24,0.6-0.24,0.96c0,0.35,0.08,0.67,0.24,0.96
	c0.16,0.28,0.38,0.51,0.65,0.67C160.05,71.24,160.36,71.33,160.7,71.33z M160.7,66.96c0.47,0,0.89,0.11,1.27,0.33
	c0.38,0.22,0.68,0.52,0.9,0.9c0.22,0.38,0.33,0.81,0.33,1.27v2.11c0,0.1-0.03,0.18-0.1,0.24c-0.07,0.07-0.15,0.1-0.25,0.1
	c-0.1,0-0.19-0.03-0.25-0.09c-0.07-0.06-0.1-0.15-0.1-0.25v-0.54c-0.21,0.29-0.48,0.51-0.8,0.68c-0.32,0.16-0.68,0.25-1.07,0.25
	c-0.45,0-0.87-0.11-1.23-0.33c-0.37-0.22-0.66-0.52-0.87-0.9c-0.21-0.38-0.32-0.8-0.32-1.27c0-0.47,0.11-0.89,0.33-1.27
	c0.22-0.38,0.52-0.68,0.9-0.9C159.81,67.07,160.24,66.96,160.7,66.96z M156.36,66.07c-0.14,0-0.25-0.05-0.35-0.14
	c-0.09-0.1-0.14-0.21-0.14-0.35c0-0.14,0.05-0.26,0.14-0.35c0.1-0.09,0.21-0.13,0.35-0.13c0.13,0,0.25,0.05,0.34,0.13
	c0.1,0.09,0.14,0.21,0.14,0.35c0,0.14-0.05,0.25-0.14,0.35C156.62,66.02,156.5,66.07,156.36,66.07z M156.37,71.91
	c-0.1,0-0.19-0.03-0.25-0.1c-0.07-0.07-0.1-0.15-0.1-0.25v-4.21c0-0.1,0.03-0.19,0.1-0.25c0.07-0.07,0.15-0.1,0.25-0.1
	c0.1,0,0.18,0.03,0.25,0.1c0.06,0.07,0.09,0.15,0.09,0.25v4.21c0,0.1-0.03,0.19-0.09,0.25C156.55,71.88,156.47,71.91,156.37,71.91z
	 M152.72,71.95c-0.47,0-0.89-0.11-1.26-0.33c-0.37-0.22-0.66-0.52-0.87-0.9c-0.21-0.38-0.32-0.8-0.32-1.27c0-0.48,0.1-0.91,0.3-1.29
	c0.2-0.38,0.48-0.68,0.84-0.89c0.36-0.22,0.76-0.32,1.21-0.32c0.75,0,1.35,0.29,1.82,0.86c0.05,0.05,0.07,0.12,0.07,0.19
	c0,0.1-0.05,0.18-0.15,0.25c-0.05,0.04-0.11,0.05-0.17,0.05c-0.09,0-0.18-0.05-0.26-0.13c-0.18-0.2-0.38-0.35-0.59-0.44
	c-0.22-0.1-0.45-0.15-0.72-0.15c-0.33,0-0.62,0.08-0.88,0.24c-0.26,0.16-0.46,0.38-0.6,0.67c-0.14,0.29-0.21,0.61-0.21,0.97
	c0,0.35,0.07,0.67,0.22,0.96c0.15,0.28,0.36,0.51,0.63,0.67c0.27,0.16,0.58,0.24,0.92,0.24c0.48,0,0.86-0.13,1.16-0.39
	c0.08-0.07,0.16-0.1,0.24-0.1c0.07,0,0.14,0.02,0.2,0.07c0.08,0.07,0.13,0.15,0.13,0.24c0,0.08-0.03,0.14-0.09,0.2
	C153.92,71.75,153.38,71.95,152.72,71.95z M146.69,71.33c0.35,0,0.66-0.08,0.93-0.24c0.27-0.16,0.49-0.38,0.65-0.67
	c0.16-0.28,0.23-0.6,0.23-0.96c0-0.36-0.08-0.68-0.23-0.96c-0.16-0.28-0.37-0.51-0.65-0.67c-0.28-0.16-0.59-0.24-0.93-0.24
	c-0.34,0-0.65,0.08-0.93,0.24c-0.28,0.16-0.5,0.38-0.65,0.67c-0.16,0.28-0.24,0.61-0.24,0.96c0,0.35,0.08,0.67,0.24,0.96
	c0.16,0.28,0.38,0.51,0.65,0.67C146.04,71.24,146.35,71.33,146.69,71.33z M146.69,71.95c-0.47,0-0.9-0.11-1.28-0.32
	c-0.38-0.22-0.68-0.51-0.89-0.89c-0.22-0.38-0.32-0.81-0.32-1.28c0-0.47,0.11-0.9,0.32-1.28c0.22-0.38,0.51-0.68,0.89-0.9
	c0.38-0.22,0.81-0.32,1.28-0.32c0.47,0,0.9,0.11,1.27,0.32c0.38,0.22,0.67,0.51,0.89,0.9c0.22,0.38,0.33,0.81,0.33,1.28
	c0,0.47-0.11,0.9-0.32,1.28c-0.22,0.38-0.51,0.68-0.89,0.89C147.59,71.85,147.16,71.95,146.69,71.95z M141.34,71.95
	c-0.37,0-0.73-0.06-1.07-0.19c-0.34-0.13-0.62-0.3-0.83-0.53c-0.06-0.07-0.09-0.14-0.09-0.21c0-0.1,0.05-0.19,0.14-0.27
	c0.07-0.05,0.15-0.08,0.22-0.08c0.1,0,0.19,0.04,0.26,0.13c0.14,0.17,0.33,0.3,0.57,0.39c0.24,0.09,0.5,0.13,0.78,0.13
	c0.42,0,0.73-0.07,0.94-0.22c0.21-0.14,0.32-0.33,0.32-0.56c0-0.22-0.1-0.39-0.31-0.54c-0.21-0.14-0.54-0.25-1-0.32
	c-0.59-0.1-1.02-0.26-1.31-0.5c-0.29-0.24-0.44-0.52-0.44-0.86c0-0.44,0.17-0.77,0.51-1.01c0.34-0.24,0.76-0.36,1.27-0.36
	c0.39,0,0.74,0.07,1.03,0.2c0.29,0.13,0.53,0.32,0.71,0.56c0.05,0.08,0.07,0.15,0.07,0.21c0,0.1-0.05,0.18-0.14,0.24
	c-0.04,0.03-0.1,0.04-0.17,0.04c-0.13,0-0.23-0.04-0.31-0.13c-0.29-0.34-0.69-0.5-1.2-0.5c-0.33,0-0.59,0.07-0.79,0.2
	c-0.2,0.13-0.3,0.3-0.3,0.51c0,0.22,0.09,0.39,0.28,0.52c0.19,0.13,0.51,0.23,0.99,0.31c0.64,0.11,1.1,0.28,1.37,0.52
	c0.28,0.24,0.41,0.54,0.41,0.9c0,0.28-0.08,0.52-0.25,0.74c-0.16,0.22-0.39,0.38-0.69,0.5C142.04,71.89,141.71,71.95,141.34,71.95z
	 M136.5,71.95c-0.37,0-0.73-0.06-1.07-0.19c-0.34-0.13-0.62-0.3-0.83-0.53c-0.06-0.07-0.09-0.14-0.09-0.21
	c0-0.1,0.05-0.19,0.14-0.27c0.07-0.05,0.15-0.08,0.22-0.08c0.1,0,0.19,0.04,0.26,0.13c0.14,0.17,0.33,0.3,0.57,0.39
	c0.24,0.09,0.5,0.13,0.78,0.13c0.42,0,0.73-0.07,0.94-0.22c0.21-0.14,0.32-0.33,0.32-0.56c0-0.22-0.1-0.39-0.31-0.54
	c-0.21-0.14-0.54-0.25-1-0.32c-0.59-0.1-1.02-0.26-1.31-0.5c-0.29-0.24-0.44-0.52-0.44-0.86c0-0.44,0.17-0.77,0.51-1.01
	c0.34-0.24,0.76-0.36,1.27-0.36c0.39,0,0.74,0.07,1.03,0.2c0.29,0.13,0.53,0.32,0.71,0.56c0.05,0.08,0.07,0.15,0.07,0.21
	c0,0.1-0.05,0.18-0.14,0.24c-0.04,0.03-0.1,0.04-0.17,0.04c-0.13,0-0.23-0.04-0.31-0.13c-0.29-0.34-0.69-0.5-1.2-0.5
	c-0.33,0-0.59,0.07-0.79,0.2c-0.2,0.13-0.3,0.3-0.3,0.51c0,0.22,0.09,0.39,0.28,0.52c0.19,0.13,0.51,0.23,0.99,0.31
	c0.64,0.11,1.1,0.28,1.37,0.52c0.28,0.24,0.41,0.54,0.41,0.9c0,0.28-0.08,0.52-0.25,0.74c-0.16,0.22-0.39,0.38-0.69,0.5
	C137.2,71.89,136.87,71.95,136.5,71.95z M129.36,69.64h2.98l-1.49-3.6L129.36,69.64z M133.83,71.41c0.02,0.04,0.04,0.09,0.04,0.14
	c0,0.1-0.03,0.18-0.1,0.25c-0.07,0.07-0.15,0.1-0.25,0.1c-0.16,0-0.27-0.07-0.33-0.22l-0.6-1.45h-3.47l-0.6,1.45
	c-0.05,0.14-0.16,0.22-0.32,0.22c-0.1,0-0.18-0.03-0.25-0.1c-0.06-0.07-0.09-0.15-0.09-0.25c0-0.06,0.01-0.11,0.03-0.15l2.64-6.26
	c0.07-0.16,0.18-0.24,0.34-0.24c0.16,0,0.27,0.08,0.33,0.24L133.83,71.41z"/>
<path class="st0" d="M350.4,66.95c0.25,0,0.45,0.03,0.6,0.1c0.15,0.07,0.22,0.16,0.22,0.28c0,0.04,0,0.06-0.01,0.08
	c-0.02,0.08-0.06,0.14-0.11,0.17c-0.05,0.03-0.12,0.05-0.21,0.05c-0.05,0-0.15-0.01-0.28-0.02c-0.05-0.01-0.12-0.01-0.22-0.01
	c-0.45,0-0.81,0.12-1.1,0.36c-0.28,0.24-0.43,0.55-0.43,0.93v2.68c0,0.11-0.03,0.19-0.09,0.25c-0.06,0.06-0.14,0.09-0.25,0.09
	s-0.19-0.03-0.25-0.09c-0.06-0.06-0.09-0.14-0.09-0.25v-4.23c0-0.11,0.03-0.19,0.09-0.25c0.06-0.06,0.14-0.09,0.25-0.09
	s0.19,0.03,0.25,0.09s0.09,0.14,0.09,0.25v0.39c0.17-0.25,0.39-0.45,0.66-0.58C349.8,67.02,350.09,66.95,350.4,66.95 M344.51,72
	c-0.63,0-1.22-0.16-1.75-0.48c-0.53-0.32-0.96-0.76-1.27-1.31c-0.31-0.55-0.47-1.15-0.47-1.8c0-0.65,0.16-1.24,0.47-1.79
	c0.31-0.55,0.73-0.99,1.26-1.31c0.53-0.32,1.12-0.48,1.76-0.48c0.43,0,0.82,0.06,1.18,0.19c0.35,0.13,0.69,0.33,1.02,0.6
	c0.07,0.05,0.1,0.12,0.1,0.21c0,0.05-0.01,0.09-0.04,0.13c-0.02,0.04-0.06,0.07-0.1,0.09c-0.01,0.04-0.04,0.07-0.08,0.1
	c-0.04,0.02-0.09,0.04-0.13,0.04c-0.09,0-0.16-0.03-0.22-0.08c-0.23-0.21-0.49-0.36-0.76-0.46c-0.27-0.1-0.6-0.14-0.96-0.14
	c-0.5,0-0.97,0.13-1.4,0.4c-0.43,0.27-0.77,0.62-1.03,1.07c-0.25,0.45-0.38,0.93-0.38,1.45c0,0.53,0.13,1.02,0.38,1.47
	c0.25,0.45,0.59,0.8,1.02,1.07c0.43,0.26,0.9,0.39,1.41,0.39c0.65,0,1.24-0.21,1.77-0.63c0.07-0.05,0.13-0.07,0.2-0.07
	c0.09,0,0.17,0.03,0.23,0.09c0.07,0.06,0.1,0.15,0.1,0.25c0,0.1-0.03,0.18-0.1,0.25C346.14,71.74,345.41,72,344.51,72z
	 M335.22,67.58c-0.45,0-0.83,0.14-1.13,0.42c-0.3,0.28-0.48,0.65-0.55,1.11h3.28c-0.05-0.46-0.22-0.83-0.5-1.11
	C336.04,67.72,335.67,67.58,335.22,67.58z M335.22,66.96c0.44,0,0.83,0.1,1.18,0.31c0.34,0.21,0.61,0.49,0.79,0.86
	c0.19,0.36,0.28,0.78,0.28,1.25c0,0.1-0.03,0.17-0.09,0.23c-0.06,0.06-0.14,0.09-0.23,0.09h-3.62c0.05,0.49,0.24,0.89,0.57,1.19
	c0.33,0.31,0.75,0.46,1.26,0.46c0.22,0,0.43-0.04,0.65-0.11c0.22-0.07,0.39-0.17,0.52-0.28c0.08-0.06,0.16-0.09,0.24-0.09
	c0.07,0,0.13,0.02,0.2,0.07c0.08,0.07,0.12,0.15,0.12,0.24c0,0.08-0.03,0.15-0.1,0.21c-0.2,0.17-0.45,0.31-0.75,0.42
	c-0.3,0.11-0.6,0.17-0.88,0.17c-0.48,0-0.91-0.11-1.28-0.32c-0.38-0.21-0.67-0.51-0.88-0.89c-0.21-0.38-0.32-0.81-0.32-1.29
	c0-0.48,0.1-0.92,0.3-1.3c0.2-0.38,0.48-0.68,0.83-0.89C334.36,67.06,334.77,66.96,335.22,66.96z M327.38,71.95
	c-0.37,0-0.73-0.06-1.07-0.19c-0.34-0.13-0.62-0.3-0.83-0.53c-0.06-0.07-0.09-0.14-0.09-0.21c0-0.1,0.05-0.19,0.14-0.27
	c0.07-0.05,0.15-0.08,0.22-0.08c0.1,0,0.19,0.04,0.26,0.13c0.14,0.17,0.33,0.3,0.57,0.39c0.24,0.09,0.5,0.13,0.78,0.13
	c0.42,0,0.73-0.07,0.94-0.22c0.21-0.14,0.32-0.33,0.32-0.56c0-0.22-0.1-0.39-0.31-0.54c-0.21-0.14-0.54-0.25-1-0.32
	c-0.59-0.1-1.02-0.26-1.31-0.5c-0.29-0.24-0.44-0.52-0.44-0.86c0-0.44,0.17-0.77,0.51-1.01c0.34-0.24,0.76-0.36,1.27-0.36
	c0.39,0,0.74,0.07,1.03,0.2c0.29,0.13,0.53,0.32,0.71,0.56c0.05,0.08,0.07,0.15,0.07,0.21c0,0.1-0.05,0.18-0.14,0.24
	c-0.04,0.03-0.1,0.04-0.17,0.04c-0.13,0-0.23-0.04-0.31-0.13c-0.29-0.34-0.69-0.5-1.2-0.5c-0.33,0-0.59,0.07-0.79,0.2
	c-0.2,0.13-0.3,0.3-0.3,0.51c0,0.22,0.09,0.39,0.28,0.52c0.19,0.13,0.51,0.23,0.99,0.31c0.64,0.11,1.1,0.28,1.37,0.52
	c0.28,0.24,0.41,0.54,0.41,0.9c0,0.28-0.08,0.52-0.25,0.74c-0.16,0.22-0.39,0.38-0.69,0.5C328.08,71.89,327.75,71.95,327.38,71.95z
	 M321.83,71.33c0.34,0,0.65-0.08,0.92-0.24c0.27-0.16,0.49-0.38,0.65-0.67c0.16-0.28,0.24-0.6,0.24-0.96c0-0.35-0.08-0.67-0.24-0.96
	c-0.16-0.28-0.38-0.51-0.65-0.67c-0.28-0.16-0.58-0.25-0.92-0.25c-0.34,0-0.65,0.08-0.93,0.25c-0.28,0.16-0.5,0.39-0.65,0.67
	c-0.16,0.28-0.24,0.6-0.24,0.96c0,0.35,0.08,0.67,0.24,0.96c0.16,0.28,0.38,0.51,0.65,0.67C321.18,71.24,321.49,71.33,321.83,71.33z
	 M321.83,66.96c0.47,0,0.89,0.11,1.27,0.33c0.38,0.22,0.68,0.52,0.9,0.9c0.22,0.38,0.33,0.81,0.33,1.27v2.11
	c0,0.1-0.03,0.18-0.1,0.24c-0.07,0.07-0.15,0.1-0.25,0.1s-0.19-0.03-0.25-0.09c-0.07-0.06-0.1-0.15-0.1-0.25v-0.54
	c-0.21,0.29-0.48,0.51-0.8,0.68c-0.32,0.16-0.68,0.25-1.07,0.25c-0.45,0-0.87-0.11-1.23-0.33c-0.37-0.22-0.66-0.52-0.87-0.9
	c-0.21-0.38-0.32-0.8-0.32-1.27c0-0.47,0.11-0.89,0.33-1.27c0.22-0.38,0.52-0.68,0.9-0.9C320.94,67.07,321.36,66.96,321.83,66.96z
	 M318.17,66.95c0.25,0,0.45,0.03,0.6,0.1c0.15,0.07,0.22,0.16,0.22,0.28c0,0.04,0,0.06-0.01,0.08c-0.02,0.08-0.06,0.14-0.11,0.17
	c-0.05,0.03-0.12,0.05-0.21,0.05c-0.05,0-0.15-0.01-0.28-0.02c-0.05-0.01-0.12-0.01-0.22-0.01c-0.45,0-0.81,0.12-1.1,0.36
	c-0.28,0.24-0.43,0.55-0.43,0.93v2.68c0,0.11-0.03,0.19-0.09,0.25c-0.06,0.06-0.14,0.09-0.25,0.09c-0.11,0-0.19-0.03-0.25-0.09
	c-0.06-0.06-0.09-0.14-0.09-0.25v-4.23c0-0.11,0.03-0.19,0.09-0.25c0.06-0.06,0.14-0.09,0.25-0.09c0.11,0,0.19,0.03,0.25,0.09
	c0.06,0.06,0.09,0.14,0.09,0.25v0.39c0.17-0.25,0.39-0.45,0.66-0.58C317.57,67.02,317.86,66.95,318.17,66.95z M312.11,71.33
	c0.34,0,0.65-0.08,0.92-0.24c0.28-0.16,0.49-0.38,0.65-0.67c0.16-0.28,0.24-0.6,0.24-0.96c0-0.35-0.08-0.67-0.24-0.96
	c-0.16-0.28-0.38-0.51-0.65-0.67c-0.28-0.16-0.58-0.25-0.92-0.25c-0.34,0-0.65,0.08-0.93,0.25c-0.28,0.16-0.5,0.39-0.65,0.67
	c-0.16,0.28-0.24,0.6-0.24,0.96c0,0.35,0.08,0.67,0.24,0.96c0.16,0.28,0.38,0.51,0.65,0.67C311.46,71.24,311.77,71.33,312.11,71.33z
	 M312.11,66.96c0.47,0,0.89,0.11,1.27,0.33c0.38,0.22,0.68,0.52,0.9,0.9c0.22,0.38,0.33,0.81,0.33,1.27v2.11
	c0,0.1-0.03,0.18-0.1,0.24c-0.07,0.07-0.15,0.1-0.25,0.1c-0.1,0-0.19-0.03-0.25-0.09c-0.07-0.06-0.1-0.15-0.1-0.25v-0.54
	c-0.21,0.29-0.48,0.51-0.8,0.68c-0.32,0.16-0.68,0.25-1.07,0.25c-0.45,0-0.87-0.11-1.23-0.33c-0.37-0.22-0.66-0.52-0.87-0.9
	c-0.21-0.38-0.32-0.8-0.32-1.27c0-0.47,0.11-0.89,0.33-1.27c0.22-0.38,0.52-0.68,0.9-0.9C311.22,67.07,311.65,66.96,312.11,66.96z
	 M306.45,68.49c0.3,0,0.57-0.06,0.81-0.18c0.24-0.12,0.43-0.29,0.57-0.51c0.13-0.22,0.2-0.46,0.2-0.74c0-0.29-0.07-0.54-0.2-0.77
	c-0.13-0.23-0.32-0.4-0.56-0.53c-0.24-0.13-0.51-0.19-0.82-0.19h-1.33v2.92H306.45z M308.8,71.37c0.05,0.09,0.08,0.17,0.08,0.24
	c0,0.09-0.03,0.16-0.1,0.22c-0.07,0.05-0.15,0.08-0.26,0.08c-0.07,0-0.13-0.01-0.18-0.04c-0.05-0.03-0.09-0.07-0.13-0.13l-1.61-2.57
	h-0.15h-1.33v2.4c0,0.1-0.03,0.19-0.1,0.25c-0.07,0.07-0.15,0.1-0.25,0.1c-0.1,0-0.19-0.03-0.25-0.1c-0.07-0.07-0.1-0.15-0.1-0.25
	v-6.31c0-0.1,0.03-0.19,0.1-0.25c0.07-0.07,0.15-0.1,0.25-0.1h1.68c0.44,0,0.83,0.09,1.17,0.27c0.34,0.18,0.61,0.44,0.8,0.77
	c0.19,0.33,0.29,0.7,0.29,1.12c0,0.46-0.12,0.86-0.37,1.21c-0.25,0.35-0.58,0.6-1.01,0.74L308.8,71.37z M298.58,71.95
	c-0.37,0-0.73-0.06-1.07-0.19c-0.34-0.13-0.62-0.3-0.83-0.53c-0.06-0.07-0.09-0.14-0.09-0.21c0-0.1,0.05-0.19,0.14-0.27
	c0.07-0.05,0.15-0.08,0.22-0.08c0.1,0,0.19,0.04,0.26,0.13c0.14,0.17,0.33,0.3,0.57,0.39c0.24,0.09,0.5,0.13,0.79,0.13
	c0.42,0,0.73-0.07,0.94-0.22c0.21-0.14,0.32-0.33,0.32-0.56c0-0.22-0.1-0.39-0.31-0.54c-0.21-0.14-0.54-0.25-1-0.32
	c-0.59-0.1-1.02-0.26-1.31-0.5c-0.29-0.24-0.44-0.52-0.44-0.86c0-0.44,0.17-0.77,0.51-1.01c0.34-0.24,0.76-0.36,1.27-0.36
	c0.39,0,0.74,0.07,1.03,0.2c0.29,0.13,0.53,0.32,0.71,0.56c0.05,0.08,0.07,0.15,0.07,0.21c0,0.1-0.05,0.18-0.14,0.24
	c-0.04,0.03-0.1,0.04-0.17,0.04c-0.13,0-0.23-0.04-0.31-0.13c-0.29-0.34-0.69-0.5-1.2-0.5c-0.33,0-0.59,0.07-0.79,0.2
	c-0.2,0.13-0.3,0.3-0.3,0.51c0,0.22,0.09,0.39,0.28,0.52c0.19,0.13,0.51,0.23,0.99,0.31c0.64,0.11,1.1,0.28,1.37,0.52
	c0.28,0.24,0.41,0.54,0.41,0.9c0,0.28-0.08,0.52-0.25,0.74c-0.16,0.22-0.39,0.38-0.69,0.5C299.29,71.89,298.96,71.95,298.58,71.95z
	 M293.03,71.33c0.34,0,0.65-0.08,0.92-0.24c0.27-0.16,0.49-0.38,0.65-0.67c0.16-0.28,0.24-0.6,0.24-0.96c0-0.35-0.08-0.67-0.24-0.96
	c-0.16-0.28-0.38-0.51-0.65-0.67c-0.28-0.16-0.58-0.25-0.92-0.25c-0.34,0-0.65,0.08-0.93,0.25c-0.28,0.16-0.5,0.39-0.65,0.67
	c-0.16,0.28-0.24,0.6-0.24,0.96c0,0.35,0.08,0.67,0.24,0.96c0.16,0.28,0.38,0.51,0.65,0.67C292.38,71.24,292.69,71.33,293.03,71.33z
	 M293.03,66.96c0.47,0,0.89,0.11,1.27,0.33c0.38,0.22,0.68,0.52,0.9,0.9c0.22,0.38,0.33,0.81,0.33,1.27v2.11
	c0,0.1-0.03,0.18-0.1,0.24c-0.07,0.07-0.15,0.1-0.25,0.1s-0.19-0.03-0.25-0.09c-0.07-0.06-0.1-0.15-0.1-0.25v-0.54
	c-0.21,0.29-0.48,0.51-0.8,0.68c-0.32,0.16-0.68,0.25-1.07,0.25c-0.45,0-0.87-0.11-1.23-0.33c-0.37-0.22-0.66-0.52-0.87-0.9
	c-0.21-0.38-0.32-0.8-0.32-1.27c0-0.47,0.11-0.89,0.33-1.27c0.22-0.38,0.52-0.68,0.9-0.9C292.14,67.07,292.57,66.96,293.03,66.96z
	 M289.24,70.91c0.08,0.07,0.13,0.15,0.13,0.24c0,0.08-0.03,0.14-0.09,0.2c-0.36,0.33-0.8,0.53-1.34,0.58l-0.13,0.3
	c0.3,0.08,0.51,0.19,0.64,0.32c0.13,0.14,0.19,0.31,0.19,0.51c0,0.17-0.05,0.32-0.16,0.47c-0.11,0.14-0.25,0.26-0.44,0.34
	c-0.19,0.08-0.39,0.13-0.62,0.13c-0.31,0-0.57-0.07-0.78-0.2c-0.21-0.13-0.31-0.29-0.31-0.47c0-0.09,0.03-0.17,0.1-0.23
	c0.07-0.07,0.14-0.1,0.23-0.1c0.11,0,0.22,0.06,0.31,0.19c0.1,0.14,0.25,0.22,0.46,0.22c0.14,0,0.25-0.03,0.34-0.09
	c0.09-0.06,0.13-0.14,0.13-0.25c0-0.11-0.04-0.2-0.11-0.27c-0.07-0.07-0.19-0.12-0.36-0.16c-0.11-0.02-0.2-0.06-0.26-0.1
	c-0.06-0.04-0.09-0.11-0.09-0.18c0-0.05,0.01-0.12,0.04-0.21l0.09-0.22c-0.39-0.06-0.75-0.2-1.06-0.44
	c-0.31-0.23-0.55-0.52-0.72-0.87c-0.17-0.35-0.26-0.73-0.26-1.15c0-0.48,0.1-0.91,0.31-1.29c0.2-0.38,0.48-0.68,0.84-0.89
	c0.36-0.22,0.76-0.32,1.21-0.32c0.75,0,1.35,0.29,1.82,0.86c0.05,0.05,0.07,0.12,0.07,0.19c0,0.1-0.05,0.18-0.15,0.25
	c-0.05,0.04-0.11,0.05-0.17,0.05c-0.09,0-0.18-0.05-0.26-0.13c-0.18-0.2-0.38-0.35-0.59-0.44c-0.22-0.1-0.45-0.15-0.72-0.15
	c-0.33,0-0.62,0.08-0.88,0.24c-0.26,0.16-0.46,0.38-0.6,0.67c-0.14,0.29-0.21,0.61-0.21,0.97c0,0.35,0.07,0.67,0.22,0.96
	c0.15,0.28,0.36,0.51,0.63,0.67c0.27,0.16,0.58,0.24,0.92,0.24c0.48,0,0.86-0.13,1.16-0.39c0.08-0.07,0.16-0.1,0.24-0.1
	C289.11,70.84,289.18,70.86,289.24,70.91z M281.7,66.95c0.42,0,0.81,0.09,1.14,0.27c0.34,0.18,0.6,0.44,0.79,0.78
	c0.19,0.34,0.29,0.75,0.29,1.23v2.33c0,0.1-0.03,0.18-0.1,0.24c-0.07,0.07-0.15,0.1-0.24,0.1c-0.1,0-0.19-0.03-0.25-0.1
	c-0.07-0.07-0.1-0.15-0.1-0.24v-2.33c0-0.53-0.15-0.94-0.44-1.22c-0.3-0.28-0.68-0.42-1.16-0.42c-0.29,0-0.56,0.06-0.79,0.17
	c-0.24,0.11-0.42,0.27-0.56,0.47c-0.14,0.2-0.21,0.42-0.21,0.67v2.66c0,0.1-0.03,0.18-0.09,0.25c-0.06,0.06-0.15,0.09-0.25,0.09
	c-0.1,0-0.19-0.03-0.25-0.09c-0.07-0.06-0.1-0.15-0.1-0.25v-4.22c0-0.1,0.03-0.19,0.1-0.25c0.07-0.07,0.15-0.1,0.25-0.1
	c0.1,0,0.18,0.03,0.25,0.1c0.06,0.07,0.09,0.15,0.09,0.25v0.3c0.2-0.22,0.44-0.39,0.72-0.52C281.07,67.01,281.37,66.95,281.7,66.95z
	 M275.96,67.58c-0.45,0-0.83,0.14-1.13,0.42c-0.3,0.28-0.48,0.65-0.55,1.11h3.28c-0.05-0.46-0.22-0.83-0.5-1.11
	C276.78,67.72,276.41,67.58,275.96,67.58z M275.96,66.96c0.44,0,0.83,0.1,1.18,0.31c0.34,0.21,0.61,0.49,0.79,0.86
	c0.19,0.36,0.28,0.78,0.28,1.25c0,0.1-0.03,0.17-0.09,0.23c-0.06,0.06-0.14,0.09-0.23,0.09h-3.62c0.05,0.49,0.24,0.89,0.57,1.19
	c0.34,0.31,0.75,0.46,1.26,0.46c0.22,0,0.43-0.04,0.65-0.11c0.22-0.07,0.39-0.17,0.52-0.28c0.08-0.06,0.16-0.09,0.24-0.09
	c0.07,0,0.13,0.02,0.2,0.07c0.08,0.07,0.12,0.15,0.12,0.24c0,0.08-0.03,0.15-0.1,0.21c-0.2,0.17-0.45,0.31-0.75,0.42
	c-0.3,0.11-0.6,0.17-0.88,0.17c-0.48,0-0.91-0.11-1.28-0.32c-0.38-0.21-0.67-0.51-0.88-0.89c-0.21-0.38-0.32-0.81-0.32-1.29
	c0-0.48,0.1-0.92,0.3-1.3c0.2-0.38,0.48-0.68,0.83-0.89C275.1,67.06,275.51,66.96,275.96,66.96z M270.03,71.33
	c0.35,0,0.66-0.08,0.93-0.24c0.27-0.16,0.49-0.38,0.65-0.67c0.16-0.28,0.23-0.6,0.23-0.96c0-0.36-0.08-0.68-0.23-0.96
	c-0.16-0.28-0.37-0.51-0.65-0.67c-0.28-0.16-0.59-0.24-0.93-0.24c-0.34,0-0.65,0.08-0.93,0.24c-0.28,0.16-0.5,0.38-0.65,0.67
	c-0.16,0.28-0.24,0.61-0.24,0.96c0,0.35,0.08,0.67,0.24,0.96c0.16,0.28,0.38,0.51,0.65,0.67C269.38,71.24,269.69,71.33,270.03,71.33
	z M270.03,71.95c-0.47,0-0.9-0.11-1.28-0.32c-0.38-0.22-0.68-0.51-0.89-0.89c-0.22-0.38-0.32-0.81-0.32-1.28
	c0-0.47,0.11-0.9,0.32-1.28c0.22-0.38,0.51-0.68,0.89-0.9c0.38-0.22,0.81-0.32,1.28-0.32c0.47,0,0.9,0.11,1.27,0.32
	c0.38,0.22,0.67,0.51,0.89,0.9c0.22,0.38,0.33,0.81,0.33,1.28c0,0.47-0.11,0.9-0.32,1.28c-0.22,0.38-0.51,0.68-0.89,0.89
	C270.93,71.85,270.5,71.95,270.03,71.95z M262.94,71.28c0.54,0,1.03-0.12,1.45-0.37c0.42-0.25,0.76-0.59,1-1.03
	c0.24-0.44,0.36-0.93,0.36-1.48c0-0.55-0.12-1.04-0.36-1.48c-0.24-0.44-0.57-0.78-1-1.02c-0.42-0.25-0.91-0.37-1.45-0.37h-1.26v5.75
	H262.94z M261.33,71.91c-0.1,0-0.19-0.03-0.25-0.1c-0.07-0.07-0.1-0.15-0.1-0.25v-6.31c0-0.1,0.03-0.19,0.1-0.25
	c0.07-0.07,0.15-0.1,0.25-0.1h1.61c0.68,0,1.28,0.15,1.81,0.45c0.53,0.3,0.95,0.71,1.24,1.24c0.3,0.53,0.44,1.13,0.44,1.81
	c0,0.68-0.15,1.28-0.44,1.81c-0.3,0.53-0.71,0.95-1.24,1.25c-0.53,0.3-1.14,0.45-1.81,0.45H261.33z M254.84,67.58
	c-0.45,0-0.83,0.14-1.13,0.42c-0.3,0.28-0.48,0.65-0.55,1.11h3.28c-0.05-0.46-0.22-0.83-0.5-1.11
	C255.66,67.72,255.29,67.58,254.84,67.58z M254.84,66.96c0.44,0,0.83,0.1,1.18,0.31c0.34,0.21,0.61,0.49,0.79,0.86
	c0.19,0.36,0.28,0.78,0.28,1.25c0,0.1-0.03,0.17-0.09,0.23c-0.06,0.06-0.14,0.09-0.23,0.09h-3.62c0.05,0.49,0.24,0.89,0.57,1.19
	c0.33,0.31,0.75,0.46,1.26,0.46c0.22,0,0.43-0.04,0.65-0.11c0.22-0.07,0.39-0.17,0.52-0.28c0.08-0.06,0.16-0.09,0.24-0.09
	c0.07,0,0.13,0.02,0.2,0.07c0.08,0.07,0.12,0.15,0.12,0.24c0,0.08-0.03,0.15-0.1,0.21c-0.2,0.17-0.45,0.31-0.75,0.42
	c-0.3,0.11-0.6,0.17-0.88,0.17c-0.48,0-0.91-0.11-1.28-0.32c-0.38-0.21-0.67-0.51-0.88-0.89c-0.21-0.38-0.32-0.81-0.32-1.29
	c0-0.48,0.1-0.92,0.3-1.3c0.2-0.38,0.48-0.68,0.83-0.89C253.98,67.06,254.39,66.96,254.84,66.96z M248.64,71.33
	c0.34,0,0.65-0.08,0.92-0.25c0.27-0.16,0.49-0.39,0.65-0.67c0.16-0.28,0.24-0.6,0.24-0.96c0-0.1,0-0.18-0.01-0.22
	c-0.01-0.01-0.01-0.03-0.01-0.05c-0.06-0.47-0.26-0.85-0.59-1.15c-0.33-0.3-0.73-0.45-1.21-0.45c-0.34,0-0.65,0.08-0.93,0.24
	c-0.28,0.16-0.5,0.38-0.65,0.67c-0.16,0.28-0.24,0.6-0.24,0.96s0.08,0.67,0.24,0.96c0.16,0.28,0.38,0.51,0.65,0.67
	C247.99,71.24,248.3,71.33,248.64,71.33z M251.13,67.26c0.01,0.02,0.01,0.04,0.01,0.08v2.11c0,0.47-0.11,0.89-0.33,1.27
	c-0.22,0.38-0.52,0.68-0.9,0.9c-0.38,0.22-0.8,0.33-1.27,0.33c-0.47,0-0.89-0.11-1.27-0.33c-0.38-0.22-0.68-0.52-0.9-0.9
	c-0.22-0.38-0.33-0.81-0.33-1.27c0-0.47,0.11-0.89,0.32-1.27c0.21-0.38,0.5-0.68,0.87-0.9c0.37-0.22,0.78-0.33,1.23-0.33
	c0.39,0,0.74,0.08,1.07,0.25c0.32,0.16,0.59,0.39,0.8,0.68v-2.63c0-0.1,0.03-0.19,0.1-0.25c0.07-0.07,0.15-0.1,0.25-0.1
	c0.1,0,0.18,0.03,0.25,0.1c0.06,0.07,0.09,0.15,0.09,0.25V67.26z M239.94,71.33c0.34,0,0.65-0.08,0.92-0.24
	c0.28-0.16,0.49-0.38,0.65-0.67c0.16-0.28,0.24-0.6,0.24-0.96c0-0.35-0.08-0.67-0.24-0.96c-0.16-0.28-0.38-0.51-0.65-0.67
	c-0.28-0.16-0.58-0.25-0.92-0.25c-0.34,0-0.65,0.08-0.93,0.25c-0.28,0.16-0.5,0.39-0.65,0.67c-0.16,0.28-0.24,0.6-0.24,0.96
	c0,0.35,0.08,0.67,0.24,0.96c0.16,0.28,0.38,0.51,0.65,0.67C239.29,71.24,239.6,71.33,239.94,71.33z M239.94,66.96
	c0.47,0,0.89,0.11,1.27,0.33c0.38,0.22,0.68,0.52,0.9,0.9c0.22,0.38,0.33,0.81,0.33,1.27v2.11c0,0.1-0.03,0.18-0.1,0.24
	c-0.07,0.07-0.15,0.1-0.25,0.1c-0.1,0-0.19-0.03-0.25-0.09c-0.07-0.06-0.1-0.15-0.1-0.25v-0.54c-0.21,0.29-0.48,0.51-0.8,0.68
	c-0.32,0.16-0.68,0.25-1.07,0.25c-0.45,0-0.87-0.11-1.23-0.33c-0.37-0.22-0.66-0.52-0.87-0.9c-0.21-0.38-0.32-0.8-0.32-1.27
	c0-0.47,0.11-0.89,0.33-1.27c0.22-0.38,0.52-0.68,0.9-0.9C239.05,67.07,239.48,66.96,239.94,66.96z M235.6,66.07
	c-0.14,0-0.25-0.05-0.35-0.14c-0.09-0.1-0.14-0.21-0.14-0.35c0-0.14,0.05-0.26,0.14-0.35c0.1-0.09,0.21-0.13,0.35-0.13
	c0.13,0,0.25,0.05,0.34,0.13c0.1,0.09,0.14,0.21,0.14,0.35c0,0.14-0.05,0.25-0.14,0.35C235.85,66.02,235.74,66.07,235.6,66.07z
	 M235.61,71.91c-0.1,0-0.19-0.03-0.25-0.1c-0.07-0.07-0.1-0.15-0.1-0.25v-4.21c0-0.1,0.03-0.19,0.1-0.25
	c0.07-0.07,0.15-0.1,0.25-0.1c0.1,0,0.18,0.03,0.25,0.1c0.06,0.07,0.09,0.15,0.09,0.25v4.21c0,0.1-0.03,0.19-0.09,0.25
	C235.79,71.88,235.71,71.91,235.61,71.91z"/>
<path class="st0" d="M379.7,71.95c-0.37,0-0.73-0.06-1.07-0.19c-0.34-0.13-0.62-0.3-0.83-0.53c-0.06-0.07-0.09-0.14-0.09-0.21
	c0-0.1,0.05-0.19,0.14-0.27c0.07-0.05,0.15-0.08,0.22-0.08c0.1,0,0.19,0.04,0.26,0.13c0.14,0.17,0.33,0.3,0.57,0.39
	c0.24,0.09,0.5,0.13,0.79,0.13c0.42,0,0.73-0.07,0.94-0.22c0.21-0.14,0.32-0.33,0.32-0.56c0-0.22-0.1-0.39-0.31-0.54
	c-0.21-0.14-0.54-0.25-1-0.32c-0.59-0.1-1.02-0.26-1.31-0.5c-0.29-0.24-0.44-0.52-0.44-0.86c0-0.44,0.17-0.77,0.51-1.01
	c0.34-0.24,0.76-0.36,1.27-0.36c0.39,0,0.74,0.07,1.03,0.2c0.29,0.13,0.53,0.32,0.71,0.56c0.05,0.08,0.07,0.15,0.07,0.21
	c0,0.1-0.05,0.18-0.14,0.24c-0.04,0.03-0.1,0.04-0.17,0.04c-0.13,0-0.23-0.04-0.31-0.13c-0.29-0.34-0.69-0.5-1.2-0.5
	c-0.33,0-0.59,0.07-0.79,0.2c-0.2,0.13-0.3,0.3-0.3,0.51c0,0.22,0.09,0.39,0.28,0.52c0.19,0.13,0.51,0.23,0.99,0.31
	c0.64,0.11,1.1,0.28,1.37,0.52c0.28,0.24,0.41,0.54,0.41,0.9c0,0.28-0.08,0.52-0.25,0.74c-0.16,0.22-0.39,0.38-0.69,0.5
	C380.4,71.89,380.07,71.95,379.7,71.95 M374.15,71.33c0.34,0,0.65-0.08,0.92-0.24c0.27-0.16,0.49-0.38,0.65-0.67
	c0.16-0.28,0.24-0.6,0.24-0.96c0-0.35-0.08-0.67-0.24-0.96c-0.16-0.28-0.38-0.51-0.65-0.67c-0.28-0.16-0.58-0.25-0.92-0.25
	c-0.34,0-0.65,0.08-0.93,0.25c-0.28,0.16-0.5,0.39-0.65,0.67c-0.16,0.28-0.24,0.6-0.24,0.96c0,0.35,0.08,0.67,0.24,0.96
	c0.16,0.28,0.38,0.51,0.65,0.67C373.5,71.24,373.81,71.33,374.15,71.33z M374.15,66.96c0.47,0,0.89,0.11,1.27,0.33
	c0.38,0.22,0.68,0.52,0.9,0.9c0.22,0.38,0.33,0.81,0.33,1.27v2.11c0,0.1-0.03,0.18-0.1,0.24c-0.07,0.07-0.15,0.1-0.25,0.1
	c-0.1,0-0.19-0.03-0.25-0.09c-0.07-0.06-0.1-0.15-0.1-0.25v-0.54c-0.21,0.29-0.48,0.51-0.8,0.68c-0.32,0.16-0.68,0.25-1.07,0.25
	c-0.45,0-0.87-0.11-1.23-0.33c-0.37-0.22-0.66-0.52-0.87-0.9c-0.21-0.38-0.32-0.8-0.32-1.27c0-0.47,0.11-0.89,0.33-1.27
	c0.22-0.38,0.52-0.68,0.9-0.9C373.26,67.07,373.68,66.96,374.15,66.96z M368.76,71.95c-0.47,0-0.89-0.11-1.26-0.33
	c-0.37-0.22-0.66-0.52-0.87-0.9c-0.21-0.38-0.32-0.8-0.32-1.27c0-0.48,0.1-0.91,0.3-1.29c0.2-0.38,0.48-0.68,0.84-0.89
	c0.36-0.22,0.76-0.32,1.21-0.32c0.75,0,1.35,0.29,1.82,0.86c0.05,0.05,0.07,0.12,0.07,0.19c0,0.1-0.05,0.18-0.15,0.25
	c-0.05,0.04-0.11,0.05-0.17,0.05c-0.09,0-0.18-0.05-0.26-0.13c-0.18-0.2-0.38-0.35-0.59-0.44c-0.22-0.1-0.45-0.15-0.72-0.15
	c-0.33,0-0.62,0.08-0.88,0.24c-0.26,0.16-0.46,0.38-0.6,0.67c-0.14,0.29-0.21,0.61-0.21,0.97c0,0.35,0.07,0.67,0.22,0.96
	c0.15,0.28,0.36,0.51,0.63,0.67c0.27,0.16,0.58,0.24,0.92,0.24c0.48,0,0.86-0.13,1.16-0.39c0.08-0.07,0.16-0.1,0.24-0.1
	c0.07,0,0.14,0.02,0.2,0.07c0.08,0.07,0.13,0.15,0.13,0.24c0,0.08-0.03,0.14-0.09,0.2C369.96,71.75,369.41,71.95,368.76,71.95z
	 M364.46,66.07c-0.14,0-0.25-0.05-0.35-0.14c-0.09-0.1-0.14-0.21-0.14-0.35c0-0.14,0.05-0.26,0.14-0.35
	c0.1-0.09,0.21-0.13,0.35-0.13c0.13,0,0.25,0.05,0.34,0.13c0.1,0.09,0.14,0.21,0.14,0.35c0,0.14-0.05,0.25-0.14,0.35
	C364.71,66.02,364.6,66.07,364.46,66.07z M364.47,71.91c-0.1,0-0.19-0.03-0.25-0.1c-0.07-0.07-0.1-0.15-0.1-0.25v-4.21
	c0-0.1,0.03-0.19,0.1-0.25c0.07-0.07,0.15-0.1,0.25-0.1c0.1,0,0.18,0.03,0.25,0.1c0.06,0.07,0.09,0.15,0.09,0.25v4.21
	c0,0.1-0.03,0.19-0.09,0.25C364.65,71.88,364.57,71.91,364.47,71.91z M360.22,66.95c0.42,0,0.81,0.09,1.14,0.27
	c0.34,0.18,0.6,0.44,0.79,0.78c0.19,0.34,0.29,0.75,0.29,1.23v2.33c0,0.1-0.03,0.18-0.1,0.24c-0.07,0.07-0.15,0.1-0.24,0.1
	c-0.1,0-0.19-0.03-0.25-0.1c-0.07-0.07-0.1-0.15-0.1-0.24v-2.33c0-0.53-0.15-0.94-0.44-1.22c-0.3-0.28-0.68-0.42-1.16-0.42
	c-0.29,0-0.56,0.06-0.79,0.17c-0.24,0.11-0.42,0.27-0.56,0.47c-0.14,0.2-0.21,0.42-0.21,0.67v2.66c0,0.1-0.03,0.18-0.09,0.25
	c-0.06,0.06-0.15,0.09-0.25,0.09c-0.1,0-0.19-0.03-0.25-0.09c-0.07-0.06-0.1-0.15-0.1-0.25v-4.22c0-0.1,0.03-0.19,0.1-0.25
	c0.07-0.07,0.15-0.1,0.25-0.1c0.1,0,0.18,0.03,0.25,0.1c0.06,0.07,0.09,0.15,0.09,0.25v0.3c0.2-0.22,0.44-0.39,0.72-0.52
	C359.59,67.01,359.89,66.95,360.22,66.95z M353.02,66.22c-0.1,0-0.19-0.03-0.26-0.09c-0.07-0.06-0.1-0.13-0.1-0.23
	c0-0.13,0.06-0.23,0.17-0.3l1.06-0.7c0.05-0.03,0.1-0.05,0.17-0.05c0.06,0,0.12,0.02,0.18,0.05l1.05,0.7
	c0.11,0.08,0.17,0.18,0.17,0.3c0,0.09-0.03,0.16-0.1,0.22c-0.07,0.06-0.15,0.09-0.25,0.09c-0.07,0-0.14-0.02-0.22-0.07l-0.83-0.57
	l-0.83,0.57C353.16,66.2,353.09,66.22,353.02,66.22z M354.06,71.33c0.35,0,0.66-0.08,0.93-0.24c0.28-0.16,0.49-0.38,0.65-0.67
	c0.16-0.28,0.23-0.6,0.23-0.96c0-0.36-0.08-0.68-0.23-0.96c-0.16-0.28-0.37-0.51-0.65-0.67c-0.28-0.16-0.59-0.24-0.93-0.24
	c-0.34,0-0.65,0.08-0.93,0.24c-0.28,0.16-0.5,0.38-0.65,0.67c-0.16,0.28-0.24,0.61-0.24,0.96c0,0.35,0.08,0.67,0.24,0.96
	c0.16,0.28,0.38,0.51,0.65,0.67C353.41,71.24,353.72,71.33,354.06,71.33z M354.06,71.95c-0.47,0-0.9-0.11-1.28-0.32
	c-0.38-0.22-0.68-0.51-0.89-0.89c-0.22-0.38-0.32-0.81-0.32-1.28c0-0.47,0.11-0.9,0.32-1.28c0.22-0.38,0.51-0.68,0.89-0.9
	c0.38-0.22,0.81-0.32,1.28-0.32c0.47,0,0.9,0.11,1.27,0.32c0.38,0.22,0.67,0.51,0.89,0.9c0.22,0.38,0.33,0.81,0.33,1.28
	c0,0.47-0.11,0.9-0.32,1.28c-0.22,0.38-0.51,0.68-0.89,0.89C354.96,71.85,354.53,71.95,354.06,71.95z"/>
<path class="st1" d="M77.11,62.32c0.02,2.05,0.1,3.22,0.76,5.07c0.26,0.72,0.52,1.46,0.85,2.13c0.34,0.68,0.7,1.25,0.89,1.97
	c0.23,0.56,0.11,0.56-0.19,1c-0.69-0.06-0.86-0.37-1.17-0.83c-0.24,0-0.17,0.05-0.17-0.21c-1.27-0.6-1.94-2.22-3-2.57l-0.17-0.22
	c-0.64-0.05-0.81-0.18-1.67-0.18c-0.86,0-1.03,0.12-1.67,0.18l-0.17,0.17c0,0.22,0.05,0.18-0.17,0.12c-0.62,0.34-1.67,1.5-2.16,2.22
	c-0.59,0.88-1.03,1.77-1.55,2.79c-0.6,1.18-2.21,4.95-2.97,5.49c0,0.26,0.07,0.21-0.17,0.21c-0.44,0.83-0.73,1.33-2,1.33
	c-0.51-0.59-0.73-0.76-0.28-2.11l0.4-1.1c0.12-0.22,0.09-0.16,0.21-0.29c0.19-1.42,3.33-6.04,4.11-7.22
	c1.97-2.95,2.31-4.91,0.73-8.63c-0.55-1.3-1.49-2.54-2.53-3.14c-1.8-1.03-2.83-0.66-4.37,0.26c-0.87,0.52-2.87,2.06-3.87,0.98
	c-0.37-0.4-0.58-1.51-0.5-2.2c0.11-0.88,0.67-1.14,1.42-1.4c0.78-0.64,1.98-0.86,3.26-1.07c0.71-0.11,1.32-0.1,2.08-0.09
	c0.96,0.01,1.43,0.16,1.89-0.46c0.7-0.94,0.1-1.9-1.73-2.04c-3.51-0.26-11.74,1.77-8.61,7.61c0.53,0.99,1.24,1.83,2.29,2.21
	c2.89,1.03,4.37-2.39,6.45-1.96c1.47,0.3,3.14,3.85,2.79,5.88c-0.39,2.33-1.97,3.58-3.2,5.65c-0.31,0.52-0.48,0.85-0.79,1.38
	c-0.64,1.08-1.91,3.43-2.29,4.55c-1.78,5.31,2.52,6.15,4.18,5.52c1.64-0.63,3.21-3.37,3.96-4.88l0.69-1.48
	c0.6-1.26,2.26-4.9,3.33-5.68c2.07-1.51,3.99,1.92,5.4,2.86c2.12,1.41,5.54-0.74,4.49-3.32c-1.15-2.82-3.75-6.52-1.52-10.18
	l3.68-5.32l0.13-0.33c0.27-0.82,0.55-1.21,0.58-2.17c-0.2-1.98-0.07-1.89-0.82-3.39c-0.3-0.59-0.45-0.85-0.78-1.39
	c-0.29-0.49-0.64-0.86-0.78-1.39l-0.17-0.17l-0.17-0.17l-0.21-0.17c-0.14-0.36-0.36-0.52-0.61-0.85c-0.17-0.22-0.38-0.52-0.57-0.77
	c-0.36-0.48-0.88-1.17-1.12-1.72c-0.54-0.63-1.47-1.9-1.5-3c0.75,0,0.95,0.12,1.37,0.47c0.18,0.15,0.26,0.24,0.43,0.4
	c0.12,0.11,0.14,0.13,0.26,0.26l0.27,0.29c0.8,0.21,0.57,0.48,1.87,1.56c0.41,0.34,0.58,0.46,0.96,0.87
	c0.42,0.44,0.47,0.41,0.91,0.75c7.68,5.94,8.74-0.93,12.6-3.41l0.17-0.19l0.33-0.16l0.17-0.17l0.33-0.17l0.17-0.17l0.33-0.17
	c0.41-0.56,1.75-0.99,2.56-1.27c1.38-0.48,1.68-0.39,3.44-0.39l0.53,0.64c-0.42,0.61-0.67,0.61-1.2,1.09
	c-1.69,0.76-3.64,1.47-5.14,2.46c-0.8,0.53-1.35,1.03-2.03,1.8c-0.56,0.64-0.92,1.52-1.42,2.34c0.12,0.21,0.16,0.17-0.08,0.17
	c-0.46,1.98-0.85,2.35-0.84,5c0.02,4.23,0.48,5.85-3.3,8.37c-0.71,0.48-2.95,1.96-3.7,2.13c-0.25,0.36-0.02,0.22-0.5,0.33
	c-0.46,0.62-2.17,1.33-2.7,2.97c-0.3,0.9,0.14,6.36,5.75,3.91c1.26-0.55,3.58-1.83,4.05-0.98c0.84,1.52-1.69,7.31,1.86,8.99
	c0.59,0.28,1.46,0.57,2.35,0.42c4.29-0.71,3.93-8.71,4.22-10.29c0.43-2.29,2.92-4.49,4.34-4.06c1.33,0.4,3.07,3.55,5.77,3.01
	c1.24-0.25,2.48-1.73,2.09-3.34c-0.4-1.64-1.22-2.57-2.12-3.73c-0.75-0.96-2.63-2.7-3.45-1.07c-0.63,1.25,1.07,1.67,2.19,3.34
	l0.17,0.17l0.2,0.17c0.2,0.34,0.78,1.1,0.7,1.64c-0.24,1.57-2.5-0.94-3.68-1.86c-1.34-1.04-2.46-1.73-4.24-0.46
	c-2.9,2.06-4.2,3.78-4.52,7.52c0.1,1.14-0.42,3.93-0.7,4.94c-0.85,3.04-2.72,1.73-2.93,0.99c-0.37-0.57,0.26-4.37,0.26-5.43
	c0.01-2.16-0.73-2.98-2.26-3.66l-0.17-0.13H93.6l-0.17-0.15l-1.17,0.01l-0.33,0.1l-3.94,1.57c-2.63,0.71-1.63-1.94-0.3-2.07
	c0.26-0.72,2.86-1.99,3.51-2.39c1.13-0.69,2.67-1.79,3.29-2.54c3.26-3.94,1.47-6.74,2.16-9.41c-0.21-1.63,0.97-4.13,1.69-5.08
	c1.02-1.33,2.77-2.02,4.2-2.64c1.53-0.65,3.36-1.38,4.22-2.61c1.81-2.56-1.53-6.39-7.39-3.89c-2.14,0.91-4.48,2.46-5.99,4.18
	c-0.33,0.38-0.38,0.52-0.75,0.92c-1.26,1.32-2.56,3.87-5.51,1.93c-0.66-0.44-1.34-0.89-1.91-1.43c-0.4-0.38-0.51-0.42-0.91-0.76
	c-0.35-0.29-0.6-0.59-0.92-0.91c-1.65-1.68-4.38-4.21-6.54-2.79c-5.02,3.31,6.96,11.19,5.3,15.8c-1.16,3.22-3.71,4.26-4.91,8.42
	L77.11,62.32z"/>
<path class="st2" d="M57.75,56.14c-0.75,0.26-1.31,0.52-1.42,1.4c-0.09,0.69,0.13,1.81,0.5,2.2c1,1.08,3-0.46,3.87-0.98
	c1.54-0.93,2.57-1.29,4.37-0.26c1.04,0.59,1.99,1.84,2.53,3.14c1.58,3.73,1.23,5.68-0.73,8.63c-0.78,1.18-3.92,5.8-4.11,7.22
	c-0.01,1.37,0.42,2.06,1.66,2.17l0.17-0.21c0.75-0.54,2.37-4.31,2.97-5.49c0.52-1.02,0.96-1.91,1.55-2.79
	c0.48-0.72,1.54-1.89,2.16-2.22l0.17-0.12l0.17-0.17c0.41-1.12,1.96-1.2,3.33,0c0.24,0,0.17-0.05,0.17,0.22
	c1.07,0.35,1.73,1.97,3,2.57l0.17,0.21c1,0.08,0.4,0.31,1.35-0.17c-0.19-0.72-0.55-1.29-0.89-1.97c-0.33-0.67-0.6-1.41-0.85-2.13
	c-0.66-1.85-0.74-3.01-0.76-5.07l-0.33-1.04c-0.47-3.52,6.38-8.34,3.24-10.25c-1.1-0.67-1.96,0.68-2.48,1.24
	c-2.72,2.97-4.39,3.9-8.79,3.88l-8.34-0.17C59.37,55.98,58.5,56.14,57.75,56.14"/>
<path class="st3" d="M98.27,39.98l-0.33,0.17l-0.17,0.17l-0.33,0.17l-0.17,0.17l-0.33,0.16l-0.17,0.19
	c-3.86,2.48-4.91,9.35-12.6,3.41c-0.45-0.35-0.5-0.32-0.91-0.75c-0.39-0.41-0.55-0.53-0.96-0.87c-1.3-1.08-1.06-1.35-1.87-1.56
	c-0.52,0.55-0.81,0.56-0.84,1.59c0.24,0.55,0.76,1.24,1.12,1.72c0.18,0.25,0.39,0.55,0.57,0.77c0.25,0.32,0.47,0.49,0.61,0.85
	c0.26,0,0.21-0.07,0.21,0.17l0.17,0.17l0.17,0.17c0.57,0.38,1.73,1.73,2.1,2.4c0.57,1.01,0.83,2.58,0.27,3.77
	c-0.03,0.96-0.3,1.35-0.58,2.17c0.07,0.57,0.07,0.21-0.13,0.33c-0.14,1.62-3.45,6.9-0.37,7.88c1.29,0.41,1.88-0.31,2.87-0.54
	c0.25-0.36,0.02-0.22,0.5-0.33c0.33-0.45,1.06-0.82,1.54-1.29c4.14-4.04,4.21-2.69,5.2-9.47c0.21-1.47,0.19-4.08,1.09-4.74
	l0.08-0.17c0.5-0.82,0.86-1.7,1.42-2.34c0.68-0.77,1.22-1.27,2.03-1.8c1.51-1,3.45-1.7,5.14-2.46c-0.43-0.8-1.3-1.22-2.65-1.05
	C99.85,39.13,99.17,39.77,98.27,39.98"/>
<path class="st4" d="M96.66,50.81c-0.69,2.66,1.09,5.47-2.16,9.41c-0.62,0.75-2.17,1.85-3.29,2.54c-0.66,0.4-3.25,1.67-3.51,2.39
	c0.75,1.59,2.63,0.5,4.24,0.5c0.12-0.19-0.17-0.22,0.33-0.1l1.17-0.01c0.24-0.07,0.17-0.11,0.17,0.15h0.17
	c0.22-0.05,0.17-0.09,0.17,0.13c1.53,0.68,2.28,1.5,2.26,3.66c-0.01,1.05-0.63,4.86-0.26,5.43c3.04,0.86,2.8-4.25,3.63-5.92
	c0.32-3.74,1.63-5.46,4.52-7.52c1.78-1.26,2.9-0.58,4.24,0.46c1.18,0.91,3.44,3.43,3.68,1.86c0.08-0.54-0.5-1.3-0.7-1.64
	c-0.25,0-0.2,0.07-0.2-0.17l-0.17-0.17l-4.06-2.28c-3.36-1.68-6.2-2.43-7.38-5.46c-0.34-0.86-0.34-1.65-0.66-2.51
	C98.37,50.26,97.82,50.78,96.66,50.81"/>
<path class="st1" d="M66.42,48.31v1c0,2.9,2.72,5.23,5.52,5.31c1.49,0.04,3.06-0.8,3.89-1.57c0.03-0.02,0.06-0.06,0.09-0.08
	c3.49-3.37,1.44-9.65-4.15-9.65C69.14,43.31,66.42,45.86,66.42,48.31 M73.97,46.48c0.71,0.45,1.24,1.21,1.26,2.34
	c0.02,1.14-0.49,2.08-1.07,2.57c-1.61,1.38-4.35,0.84-4.88-0.91c-0.2-0.25-0.07,0.02-0.26-0.44c-0.21-0.51-0.28-1.03-0.17-1.61
	c0.19-0.98,0.43-1.27,1.01-1.84C70.85,45.65,72.97,45.39,73.97,46.48z"/>
<path class="st1" d="M87.93,39.98c2.89,0,5-2.14,5-5.5c0-2.39-2.29-4.5-5.33-4.5c-2.41,0-4.76,2.66-4.59,5.11
	C83.2,38.03,85.6,39.98,87.93,39.98 M86.1,33.39c0-0.3-0.09-0.25,0.17-0.25c0.48-0.65,2-0.95,2.93-0.43
	c0.19,0.11,0.82,0.72,0.94,0.89c0.22,0.3,0.51,0.98,0.31,1.37c0.12,1.86-1.78,3.13-3.5,2.32C85.65,36.7,84.62,34.6,86.1,33.39z"/>
<path class="st1" d="M100.6,52.48c0,7.01,9.96,6.64,9.96,0.17c0-1.99-1.33-3.75-2.95-4.51c-1.95-0.91-4.05-0.4-5.46,0.88
	c-0.31,0.28-0.86,1.07-1.05,1.45C100.8,51.02,100.6,51.62,100.6,52.48 M104.93,50.07c1.44-0.29,2.39,0.3,2.94,1.14
	c0.61,0.94,0.54,2.51-0.27,3.1l-0.17,0.32C103.39,57.82,100.7,50.83,104.93,50.07z"/>
<path class="st2" d="M69.29,50.48c0.53,1.75,3.27,2.29,4.88,0.91c0.58-0.49,1.1-1.43,1.07-2.57c-0.02-1.13-0.55-1.89-1.26-2.34
	c-1.63-0.12-2.28-0.23-3.43,0.79C69.66,48.06,69.17,48.79,69.29,50.48"/>
<path class="st4" d="M107.44,54.64l0.17-0.32c0.11-1.27,0.44-1.96-0.37-2.96c-0.27-0.34-0.61-0.67-0.96-0.88
	c-0.6-0.37-0.69-0.21-1.34-0.41C100.7,50.83,103.39,57.82,107.44,54.64"/>
<path class="st3" d="M86.26,33.14l-0.17,0.25c-1.48,1.21-0.44,3.31,0.84,3.91c1.73,0.8,3.63-0.47,3.5-2.32
	c-0.44-0.78-0.72-1.25-1.51-1.67C87.8,32.72,87.45,33.04,86.26,33.14"/>
</svg>
